<?xml version="1.0" encoding="utf-8"?>
<!-- Generator: Adobe Illustrator 19.0.0, SVG Export Plug-In . SVG Version: 6.00 Build 0)  -->
<svg version="1.1" id="layer" xmlns="http://www.w3.org/2000/svg" xmlns:xlink="http://www.w3.org/1999/xlink" x="0px" y="0px"
	 viewBox="-153 -46 652 652" style="enable-background:new -153 -46 652 652;" xml:space="preserve">
<style type="text/css">
	.st0{fill:#474747;}
	.st1{fill:#559C8B;}
</style>
<path class="st0" d="M-44.6,321.5l-9-27.1h-48.3l-9.6,27.1h-20.1l53-130.2h4.7l49.2,130.2H-44.6z M-76.9,225L-97,281.5h38.8
	L-76.9,225z M7.4,317.4v41.3h-17.9V230.3H7.4v7.6c6.5-6.1,15.4-9.4,24.7-9.3c12.7-0.7,25,3.8,33.6,12.3c8.7,10.2,13,22.9,12,35.8
	c0.6,12.4-3.7,24.6-12.1,34.3c-8.7,9.2-21.7,14.1-35,13.3c-4.7,0-9.3-0.7-13.8-2.1C13.2,321.5,9.9,319.8,7.4,317.4 M7.4,250.1v53.7
	c1.9,2,4.3,3.6,7.1,4.4c3.3,1.4,7,2.1,10.6,2.1c22.4,0,33.5-11.5,33.5-34.4c0.9-9.2-1.9-18.4-7.9-25.8c-6.8-5.9-16-8.9-25.4-8.1
	c-3.3,0.2-6.4,1-9.3,2.4c-3.2,1.3-6.2,3.2-8.7,5.4 M93.3,241.2H82.5v-13.5h10.9v-20.3l16.6-6.8v27.1h25.8v13.5h-25.6v48
	c-0.5,6.1,0.9,12.2,4,17.3c3.3,3.8,8.2,5.7,13.2,5.1c4.6-0.1,9.1-1.2,13.2-3.3l2.4,15c-7.4,1.9-15.1,2.8-22.7,2.7
	c-7.2,0.1-14.1-3-18.8-8.5c-5.2-5.9-8-13.6-7.7-21.5L93.3,241.2z M209.1,313.5c-7.5,8.8-18.7,13.4-30.1,12.5
	c-7.1,0.1-13.9-2.8-18.8-8c-5.2-5.2-8.1-12.3-8-19.7c0-9.6,4.6-18.6,12.3-24.2c9-6.9,20.1-10.3,31.3-9.9c4,0.1,8,0.8,11.7,2.2
	c0-15.2-6.7-22.8-20-22.8c-8.7-0.7-17.2,2.3-23.6,8.2l-6.9-14c3.9-3,8.3-5.2,13-6.6c5.1-1.8,10.4-2.7,15.7-2.8
	c10.6-1,21.1,2.4,29.2,9.3c6.8,8.3,10.1,18.9,9.1,29.6v33.7c-0.9,6.4,2,12.8,7.3,16.5v8.4c-5.2,0.3-10.3-0.7-15-2.9
	C212.8,321,210.3,317.6,209.1,313.5 M207.6,278.2c-3.5-0.9-7.2-1.5-10.8-1.7c-7.3-0.3-14.5,2.1-20.3,6.6c-4.9,3.6-7.8,9.3-7.8,15.4
	c0,9.7,5.6,14.6,17,14.6c8.8-0.3,16.9-4.7,22-12V278.2z M298.8,247c-3.1-2.4-6.9-3.7-10.8-3.8c-6,0.2-11.7,3.2-15.2,8.3
	c-4.4,5.7-6.7,12.8-6.5,20.1v54.6h-16.4v-95.9h16.4v15.3c4.8-10.6,15.2-17.3,26.5-17.1c4.4,0.1,8.7,0.7,12.9,1.6L298.8,247z"/>
<path id="Path_2_" class="st1" d="M397.4,288.1c-4.4,0-4.5-1,0-2.2l63.6-17.2c4.4-1.5,7.3-5.4,7.5-9.8v-54.2c0-4.2-2.7-5.5-6.2-2.7
	L317.1,321.2c-3.4,2.8-2.5,5,1.9,5h141.4c2.1,0,4.2-0.8,5.7-2.3c1.5-1.4,2.4-3.4,2.4-5.4v-21.8c-0.2-4.2-3.7-7.5-8-7.6L397.4,288.1z
	"/>
</svg>
